<?xml version="1.0" encoding="iso-8859-1"?>
<!-- Generator: Adobe Illustrator 19.0.0, SVG Export Plug-In . SVG Version: 6.00 Build 0)  -->
<svg version="1.1" id="Capa_1" xmlns="http://www.w3.org/2000/svg" xmlns:xlink="http://www.w3.org/1999/xlink" x="0px" y="0px"
	 viewBox="0 0 512 512" style="enable-background:new 0 0 512 512;" xml:space="preserve">
<path style="fill:#E21C59;" d="M511.295,256.774C511.295,397.732,397.027,512,256.07,512S0.844,397.732,0.844,256.774
	c0-2.959,0.052-5.896,0.156-8.824C5.647,111.077,118.071,1.549,256.07,1.549c140.447,0,254.392,113.445,255.215,253.694
	C511.295,255.753,511.295,256.264,511.295,256.774z"/>
<path style="fill:#F74C83;" d="M447.369,230.351c0,105.652-85.647,191.299-191.299,191.299S64.771,336.002,64.771,230.351
	c0-2.218,0.039-4.419,0.117-6.613C68.37,121.146,152.635,39.051,256.07,39.051c105.27,0,190.674,85.031,191.292,190.151
	C447.369,229.585,447.369,229.968,447.369,230.351z"/>
<path style="fill:#49D3DD;" d="M394.152,471.455c-21.106,13.605-44.357,24.189-69.13,31.117l-65.609-92.569l-37.367-52.722
	l-60.129-84.839c-39.544,17.47-89.6,4.344-120.175-34.377c-11.542-14.616-21.991-35.034-29.46-57.056c0,0-0.01,0,0-0.01
	C-3.323,134.985-5.896,81.95,21.867,60.021c18.22-14.386,46.43-12.959,75.297-2.979c36.211,12.522,73.442,38.503,93.288,63.629
	c30.565,38.721,31.71,90.464,5.542,124.873l55.275,63.015l36.221,41.294L394.152,471.455z"/>
<path style="fill:#70E1EA;" d="M161.483,110.251c29.533,37.409,25.906,89.499-8.103,116.347s-85.518,18.288-115.05-19.121
	S-12.138,86.866,21.87,60.017S131.95,72.842,161.483,110.251z"/>
<path style="fill:#FFE05F;" d="M491.784,79.221l-20.397,40.471L419.081,223.47l-9.001,17.845
	c-11.542,22.929-39.69,31.888-62.369,19.835l-15.095-8.011l-45.128,96.715l-28.075,60.15l-45.951,98.455
	c-24.116-4.052-47.076-11.48-68.39-21.793c0.719-1.844,1.604-3.667,2.667-5.427l74.307-123.956l29.221-48.722l44.847-74.818
	l-15.084-8.011c-22.679-12.053-31.023-40.388-18.48-62.796l9.751-17.449l71.776-128.352l7.063-12.626
	c2.333-4.177,7.584-5.719,11.813-3.479c4.198,2.229,5.865,7.396,3.761,11.657l-5.615,11.397l-60.223,122.196
	c-2.448,4.969-0.51,10.99,4.386,13.595s10.969,0.844,13.72-3.979l67.65-118.456l6.209-10.876c2.354-4.125,7.563-5.636,11.761-3.396
	l0.073,0.031c4.188,2.229,5.865,7.396,3.761,11.657l-6.23,12.647l-59.598,120.946c-2.458,4.969-0.51,10.99,4.386,13.595
	c4.896,2.594,10.969,0.833,13.72-3.979l64.296-112.601l9.553-16.73c2.354-4.125,7.573-5.636,11.761-3.406l0.063,0.042
	c4.209,2.229,5.865,7.386,3.781,11.657L439.29,79.096l-54.962,111.518c-2.448,4.969-0.51,10.99,4.386,13.595
	c4.896,2.594,10.969,0.833,13.72-3.979l56.306-98.611l17.543-30.721c2.354-4.125,7.563-5.636,11.761-3.406
	C492.273,69.741,493.93,74.949,491.784,79.221z"/>
<path style="fill:#FFED9F;" d="M419.082,223.467c-9.539,12.573-27.058,16.734-41.453,9.087l-89.654-47.63
	c-14.395-7.647-20.752-24.494-15.673-39.437L351.136,4.505c2.337-4.176,7.586-5.72,11.811-3.475c4.2,2.231,5.865,7.394,3.764,11.653
	l-65.835,133.591c-2.45,4.976-0.509,10.996,4.387,13.597c4.896,2.601,10.969,0.84,13.722-3.975l73.85-129.334
	c2.361-4.12,7.571-5.631,11.772-3.399l0.067,0.035c4.192,2.227,5.865,7.394,3.764,11.653l-65.835,133.592
	c-2.45,4.976-0.509,10.996,4.387,13.597c4.896,2.601,10.969,0.84,13.722-3.975l73.85-129.334c2.352-4.125,7.571-5.631,11.763-3.404
	l0.067,0.035c4.2,2.231,5.865,7.394,3.772,11.657L384.327,190.61c-2.45,4.976-0.509,10.996,4.387,13.597
	c4.896,2.601,10.969,0.84,13.722-3.975l73.85-129.334c2.352-4.125,7.563-5.636,11.763-3.404c4.225,2.245,5.885,7.459,3.732,11.733
	L419.082,223.467z"/>
<g>
</g>
<g>
</g>
<g>
</g>
<g>
</g>
<g>
</g>
<g>
</g>
<g>
</g>
<g>
</g>
<g>
</g>
<g>
</g>
<g>
</g>
<g>
</g>
<g>
</g>
<g>
</g>
<g>
</g>
</svg>
